PathFileType	4	(X/Y/Z)	5_coords_data.trc
DataRate	CameraRate	NumFrames	NumMarkers	Units	OrigDataRate	OrigDataStartFrame	OrigNumFrames
30.0	30.0	7	21	m	30.0	31	70
Frame#	Time	THUMB_TIP	THUMB_IP	THUMB_MCP	THUMB_CMC	INDEX_TIP	INDEX_DIP	INDEX_PIP	INDEX_MCP	MIDDLE_TIP	MIDDLE_DIP	MIDDLE_PIP	MIDDLE_MCP	RING_TIP	RING_DIP	RING_PIP	RING_MCP	PINKY_TIP	PINKY_DIP	PINKY_PIP	PINKY_MCP	WRIST
X1	Y1	Z1	X2	Y2	Z2	X3	Y3	Z3	X4	Y4	Z4	X5	Y5	Z5	X6	Y6	Z6	X7	Y7	Z7	X8	Y8	Z8	X9	Y9	Z9	X10	Y10	Z10	X11	Y11	Z11	X12	Y12	Z12	X13	Y13	Z13	X14	Y14	Z14	X15	Y15	Z15	X16	Y16	Z16	X17	Y17	Z17	X18	Y18	Z18	X19	Y19	Z19	X20	Y20	Z20	X21	Y21	Z21
30	1.0	-0.010676099777221679	-0.055711498260498045	1.0001799926757813	-0.005429440021514893	-0.07285060119628907	1.0163400268554688	-0.017352800369262695	-0.08047219848632813	1.0439000244140626	-0.03256689834594727	-0.05746139907836914	1.0580400390625	-0.03327280044555664	-0.09545079803466797	0.9351329956054687	-0.04145880126953125	-0.09331539916992188	0.95589599609375	-0.051013500213623046	-0.0898865966796875	0.977489013671875	-0.06164509963989258	-0.08299359893798829	1.012719970703125	-0.017911300659179688	-0.06222259902954102	1.03625	-0.018270399093627928	-0.06669210052490235	1.0178400268554688	-0.026657499313354493	-0.07222019958496094	0.9932369995117187	-0.06560430145263672	-0.06414920043945313	1.0059000244140626	-0.008998459815979003	-0.051973899841308596	1.035219970703125	-0.015102499961853028	-0.05293560028076172	1.0155399780273437	-0.023618900299072265	-0.05466239929199219	0.9903259887695313	-0.05984189987182617	-0.045840198516845704	1.0052999877929687	-0.03618709945678711	-0.04255160140991211	0.9430469970703125	-0.03795709991455078	-0.03982619857788086	0.963427001953125	-0.040219898223876956	-0.03801240158081055	0.9822680053710937	-0.04190430068969726	-0.03377280044555664	1.00975	-0.052151100158691406	-0.033237598419189454	1.07606005859375
31	1.0333333333333334	-0.010646900177001954	-0.05563180160522461	1.0003499755859375	-0.005549109935760498	-0.07270649719238281	1.0170999755859376	-0.017439199447631837	-0.08043250274658204	1.0440799560546874	-0.03268429946899414	-0.05731990051269531	1.058219970703125	-0.033158798217773434	-0.09542780303955078	0.9352570190429688	-0.041378501892089845	-0.0932781982421875	0.9560390014648438	-0.05100080108642578	-0.08982669830322265	0.9776710205078125	-0.06152000045776367	-0.0828844985961914	1.0127999877929688	-0.017525999069213868	-0.06220080184936523	1.03675	-0.01835350036621094	-0.0666094970703125	1.0181199951171875	-0.026635299682617186	-0.07214540100097656	0.9932860107421875	-0.0656010971069336	-0.06406369781494141	1.0058300170898438	-0.00888936996459961	-0.05188750076293945	1.0349300537109376	-0.014741399765014648	-0.05291799926757813	1.015	-0.02363629913330078	-0.05454499816894531	0.9904400024414063	-0.05997029876708984	-0.045673301696777344	1.005510009765625	-0.03605659866333008	-0.042159900665283204	0.9431849975585938	-0.03790119934082031	-0.03955059814453125	0.963551025390625	-0.04027180099487305	-0.03778200149536133	0.98243798828125	-0.04191350173950195	-0.03373160171508789	1.0098200073242187	-0.0522406005859375	-0.03325379943847656	1.0762900390625
32	1.0666666666666667	-0.010804400444030762	-0.055641799926757815	1.0005399780273438	-0.005693560123443604	-0.07266799926757812	1.01725	-0.01753459930419922	-0.08042050170898438	1.044239990234375	-0.032763999938964845	-0.05735279846191406	1.058260009765625	-0.03311429977416992	-0.09539469909667969	0.9354340209960937	-0.041386600494384765	-0.09331539916992188	0.9561599731445313	-0.05097309875488281	-0.08985179901123047	0.977718017578125	-0.061498199462890625	-0.08286219787597657	1.0128699951171876	-0.017437599182128907	-0.06223310089111328	1.0365400390625	-0.01847050094604492	-0.0663938980102539	1.0183099975585939	-0.026676000595092772	-0.07211160278320312	0.9934769897460938	-0.065654296875	-0.06403800201416016	1.0061099853515625	-0.008593050003051758	-0.05186890029907226	1.0348599853515625	-0.014987299919128418	-0.0527942008972168	1.0155999755859375	-0.023710899353027344	-0.054515899658203124	0.9906019897460937	-0.05991189956665039	-0.045687599182128905	1.0055399780273437	-0.036039600372314455	-0.042033599853515624	0.9432379760742188	-0.037908100128173826	-0.0394556999206543	0.9636610107421875	-0.04028609848022461	-0.03772610092163086	0.9824539794921875	-0.0418848991394043	-0.03369430160522461	1.0099199829101562	-0.05217010116577148	-0.03334600067138672	1.076300048828125
33	1.1	-0.01087220001220703	-0.05569070053100586	1.0004600219726563	-0.005682600021362305	-0.07273069763183594	1.0170499877929688	-0.017506399154663087	-0.08036489868164062	1.0441099853515625	-0.03290520095825195	-0.05716630172729492	1.0584599609375	-0.033141799926757816	-0.09544280242919922	0.9355449829101562	-0.041411598205566405	-0.09332559967041015	0.956239990234375	-0.05104669952392578	-0.08986430358886718	0.9778150024414063	-0.06175360107421875	-0.08285199737548828	1.0130999755859376	-0.017962200164794922	-0.062177600860595705	1.0363199462890624	-0.018640600204467773	-0.06651249694824218	1.0183099975585939	-0.02673270034790039	-0.0721176986694336	0.9935239868164063	-0.06572139739990235	-0.06407929992675782	1.0059400024414062	-0.009253120422363282	-0.05182429885864258	1.0350400390625	-0.015064599990844727	-0.052816898345947265	1.0152100219726563	-0.023849199295043946	-0.054492000579833985	0.9907449951171875	-0.06008760070800781	-0.04569200134277344	1.0055800170898437	-0.03609540176391601	-0.04206610107421875	0.9433690185546875	-0.038125598907470706	-0.039514198303222656	0.9637219848632812	-0.04044469833374023	-0.03777009963989258	0.98247998046875	-0.04206719970703125	-0.033686901092529295	1.01	-0.05241640090942383	-0.03323440170288086	1.076469970703125
34	1.1333333333333333	-0.010853500366210937	-0.0556077995300293	1.0006500244140626	-0.0058542799949646	-0.07265670013427734	1.01727001953125	-0.01771540069580078	-0.08035910034179687	1.044199951171875	-0.03314759826660156	-0.05713539886474609	1.0584599609375	-0.03251580047607422	-0.09530809783935547	0.9357620239257812	-0.041012901306152344	-0.09324530029296875	0.9563619995117187	-0.05085499954223633	-0.08978690338134766	0.9778519897460938	-0.061687400817871094	-0.08279979705810547	1.0130499877929688	-0.01781649971008301	-0.06231660079956055	1.0366500244140624	-0.018722700119018554	-0.06633660125732421	1.018239990234375	-0.026720800399780274	-0.07203389739990235	0.993572998046875	-0.06577169799804687	-0.06398939895629883	1.006219970703125	-0.009216099739074708	-0.05169340133666992	1.035530029296875	-0.015297200202941895	-0.05265459823608398	1.0156300048828124	-0.02381609916687012	-0.054472301483154295	0.9906199951171875	-0.060223598480224606	-0.04559209823608398	1.0056799926757813	-0.035859298706054685	-0.041990001678466796	0.9434340209960937	-0.03786989974975586	-0.03941699981689453	0.9637100219726562	-0.04034939956665039	-0.03766009902954102	0.982593994140625	-0.042270599365234376	-0.03358330154418945	1.010030029296875	-0.05275590133666992	-0.03319049835205078	1.0763399658203125
35	1.1666666666666667	-0.010914799690246581	-0.05522809982299805	1.0006900024414063	-0.005883930206298828	-0.07229340362548828	1.0173300170898438	-0.017851999282836914	-0.08013379669189453	1.044050048828125	-0.03334410095214844	-0.057074298858642576	1.0584100341796876	-0.030947099685668944	-0.09505789947509766	0.9361820068359376	-0.04010960006713867	-0.09285700225830078	0.9565189819335937	-0.05054909896850586	-0.08939250183105468	0.977697998046875	-0.06169219970703125	-0.08262940216064453	1.0126699829101562	-0.018444599151611327	-0.06215710067749024	1.03672998046875	-0.01892849922180176	-0.0661584014892578	1.0185499877929687	-0.026626899719238283	-0.0717384033203125	0.9934320068359375	-0.06561730194091797	-0.06375910186767578	1.0060499877929687	-0.009515910148620606	-0.05156240081787109	1.0356600341796875	-0.015336899757385255	-0.05225329971313476	1.015489990234375	-0.023735000610351564	-0.05407160186767578	0.9905889892578125	-0.05992710113525391	-0.045407501220703125	1.0055999755859375	-0.035345199584960935	-0.041573699951171876	0.9434869995117188	-0.03759320068359375	-0.03898619842529297	0.963781982421875	-0.04023429870605469	-0.03731039810180664	0.9824940185546875	-0.0421879997253418	-0.033279598236083986	1.010219970703125	-0.052951698303222654	-0.03312620162963867	1.076530029296875
36	1.2	-0.011016500473022462	-0.05468190002441406	1.0008900146484374	-0.006066909790039062	-0.07204209899902343	1.01725	-0.018088300704956053	-0.07990589904785156	1.0439200439453125	-0.03362170028686524	-0.0569098014831543	1.058300048828125	-0.028447200775146484	-0.09485859680175782	0.937166015625	-0.038899299621582034	-0.09241439819335938	0.9567540283203125	-0.05027399826049805	-0.08881790161132813	0.97739599609375	-0.061795700073242185	-0.08215540313720703	1.0124000244140625	-0.018246400833129884	-0.06164920043945313	1.0368599853515625	-0.018709100723266602	-0.06598690032958984	1.01777001953125	-0.026491500854492187	-0.07133470153808594	0.993208984375	-0.06553240203857422	-0.06323960113525391	1.0055599975585938	-0.009550889968872071	-0.051304698944091794	1.035239990234375	-0.015317700386047363	-0.051831100463867186	1.0150599975585937	-0.023583099365234374	-0.053453701019287106	0.9906530151367188	-0.05999039840698242	-0.0446442985534668	1.0052999877929687	-0.034667999267578124	-0.04078010177612305	0.9436420288085937	-0.03709389877319336	-0.0383286018371582	0.963843994140625	-0.039884700775146484	-0.0366957015991211	0.9825189819335938	-0.0421171989440918	-0.032767799377441405	1.009989990234375	-0.053309398651123045	-0.03300439834594727	1.076469970703125
